# xmcd
#
# Track frame offsets: 
#        150
#        12490
#        26091
#        40255
#        59067
#        71058
#        82966
#        95909
#        111432
#        128827
#        150227
#        164112
#        177191
#        194007
#        209365
#
# Disc length: 3034 seconds
#
# Revision: 0
# Processed by: cddbd v1.5.2PL0 Copyright (c) Steve Scherf et al.
# Submitted via: ExactAudioCopy v1.1
#
DISCID=de0bd80f
DTITLE=Luc Steeno - 30 - CD 3 - Vergeten Pareltjes
DYEAR=2019
DGENRE=Chanson
TTITLE0=Wat Moet Ik Zonder Jou
TTITLE1=Liefde Is
TTITLE2=Kon Ik Alles Overdoen
TTITLE3=En Niemand Weet
TTITLE4=Luc Steeno and John Terra - Die Woorden
TTITLE5=Luc Steeno and Micha Marah - Voor Altijd Van Jou
TTITLE6=Of Heb Je Liever Dat Ik Ga
TTITLE7=Pijn
TTITLE8=Liedje Van De Liefde
TTITLE9=Liefde Nummer 4
TTITLE10=Als Twee Halmen
TTITLE11=Elke Dag Denk Ik Aan Jou
TTITLE12=Stel Dat Jij Niet Echt Bestond
TTITLE13=Luc Steeno Met Lisa Del Bo and Willy Sommers - Ruis Op De Lijn
TTITLE14=Jij Alleen
EXTD=
EXTT0=
EXTT1=
EXTT2=
EXTT3=
EXTT4=
EXTT5=
EXTT6=
EXTT7=
EXTT8=
EXTT9=
EXTT10=
EXTT11=
EXTT12=
EXTT13=
EXTT14=
PLAYORDER=
